<?xml version="1.0" standalone="no"?>
!DOCTYPE svg PUBLIC "-//W3C//DTD SVG 20010904//EN"
 "http://www.w3.org/TR/2001/REC-SVG-20010904/DTD/svg10.dtd">
<svg version="1.0" xmlns="http://www.w3.org/2000/svg"
 width=5px height=5px "1280.000000pt" viewBox="0 0 850.000000 1280.000000"
 preserveAspectRatio="xMidYMid meet">
<g transform="translate(0.000000,1280.000000) scale(0.100000,-0.100000)"
fill="#000000" stroke="none">
<path d="M3766 12792 c-3 -5 -3 -57 -1 -118 2 -60 9 -242 15 -404 11 -312 17
-461 25 -575 3 -38 8 -126 11 -195 11 -216 14 -194 -26 -201 -54 -9 -185 -74
-237 -116 -51 -42 -116 -125 -141 -181 -14 -31 -17 -73 -18 -247 0 -204 -1
-212 -26 -267 -15 -31 -44 -81 -67 -111 -58 -79 -107 -118 -301 -236 -36 -22
-82 -57 -103 -79 -33 -34 -37 -42 -27 -59 10 -16 6 -29 -25 -86 -39 -71 -78
-171 -100 -252 -17 -65 -29 -264 -16 -279 5 -6 11 -42 15 -81 10 -121 22 -211
31 -225 5 -8 9 -28 11 -44 1 -17 9 -61 19 -98 25 -96 14 -203 -26 -254 -26
-32 -49 -89 -49 -120 0 -6 12 -33 26 -60 25 -47 26 -51 13 -104 -21 -83 -18
-249 6 -347 11 -46 23 -83 28 -83 4 0 20 6 35 14 44 21 207 60 225 53 24 -9
22 -73 -3 -122 -11 -22 -20 -44 -20 -50 0 -5 -24 -51 -54 -101 -69 -115 -89
-183 -84 -279 3 -71 10 -87 72 -170 8 -11 -20 -80 -92 -225 -17 -35 -18 -35
-82 -35 -65 0 -131 16 -265 62 -38 14 -95 31 -125 39 -30 8 -63 19 -72 24 -10
6 -26 10 -36 10 -10 0 -54 10 -98 21 -120 32 -208 42 -324 34 -58 -4 -116 -6
-129 -6 -49 2 -249 -30 -306 -48 -131 -42 -258 -99 -325 -146 -25 -18 -79 -52
-120 -76 -41 -24 -99 -63 -129 -87 -30 -24 -63 -48 -75 -54 -12 -5 -39 -32
-61 -59 -22 -27 -48 -51 -57 -55 -10 -3 -18 -10 -18 -15 0 -5 -32 -46 -71 -91
-96 -111 -167 -221 -232 -358 -65 -136 -73 -160 -120 -350 -42 -172 -71 -370
-83 -570 -2 -36 -6 -76 -9 -90 -3 -14 -12 -104 -20 -200 -17 -200 -31 -342
-41 -417 l-7 -53 40 0 c24 0 49 -7 62 -17 l21 -18 -30 -100 c-16 -55 -30 -110
-30 -122 0 -11 -9 -50 -20 -85 -33 -102 -43 -200 -44 -433 0 -178 3 -236 18
-304 30 -142 22 -271 -30 -446 -13 -44 -29 -116 -35 -160 -6 -44 -15 -88 -20
-98 -20 -37 25 -393 54 -425 9 -10 17 -26 17 -35 0 -9 4 -18 10 -22 5 -3 7
-46 3 -105 -5 -84 -3 -107 12 -140 10 -22 26 -42 35 -45 20 -6 30 -34 30 -80
0 -37 25 -75 49 -75 39 0 53 24 68 119 14 90 51 192 73 206 23 14 32 -12 16
-49 -20 -48 -22 -109 -7 -173 l13 -51 31 10 c49 17 57 27 57 72 0 54 35 91 81
88 26 -2 43 9 114 78 161 158 202 255 231 547 8 92 20 160 33 190 11 27 25 67
31 91 20 77 32 61 101 -133 16 -44 29 -94 29 -111 0 -55 38 -96 112 -122 64
-23 67 -26 83 -70 11 -30 20 -108 26 -217 12 -192 1 -374 -33 -582 -11 -71
-22 -144 -23 -163 -1 -19 -5 -42 -8 -50 -3 -8 -8 -26 -10 -40 -3 -14 -11 -43
-17 -65 -31 -104 -17 -180 46 -253 27 -32 43 -42 71 -44 49 -4 70 -36 78 -118
7 -72 13 -61 -92 -197 -59 -75 -66 -108 -33 -150 24 -31 26 -56 4 -74 -13 -10
-20 -10 -44 4 -16 10 -49 20 -74 23 -62 9 -79 30 -34 42 29 8 24 9 -35 10 -37
0 -67 -3 -67 -7 1 -28 81 -81 123 -81 52 0 97 -17 157 -59 90 -64 191 -92 347
-98 136 -6 177 -1 345 39 75 17 93 26 118 55 34 38 37 55 13 74 -51 43 -181
260 -223 373 -21 58 -32 74 -57 86 -55 26 -117 93 -136 148 -16 45 -17 60 -7
124 15 93 2 175 -41 266 l-32 67 7 295 c6 241 9 298 22 310 13 13 27 2 122
-95 59 -61 130 -139 156 -174 48 -61 50 -67 56 -146 4 -51 14 -96 26 -118 20
-37 97 -107 118 -107 37 0 86 -108 73 -161 -4 -14 -18 -31 -32 -37 -30 -14
-112 -88 -126 -114 -8 -15 -4 -26 20 -54 25 -27 31 -44 31 -79 0 -24 5 -67 11
-95 10 -47 9 -54 -10 -74 -17 -18 -19 -27 -11 -55 11 -41 41 -91 83 -142 34
-43 168 -115 242 -131 102 -23 140 -22 196 7 62 30 95 58 115 97 19 36 18 208
-2 358 -8 63 -18 139 -21 169 -5 52 -10 59 -80 130 -108 110 -122 145 -126
313 -3 126 -6 140 -32 194 -17 35 -54 84 -90 119 -34 33 -73 76 -87 95 -15 19
-115 125 -223 235 -108 110 -209 218 -225 241 -16 23 -40 48 -54 58 -32 21
-32 39 -1 103 31 66 56 149 89 298 18 82 38 140 62 183 33 62 49 83 140 198
66 83 131 180 184 279 12 22 34 56 49 75 40 52 72 123 60 131 -19 12 -5 42 28
58 20 10 38 31 49 56 10 22 27 53 37 68 14 21 17 31 8 40 -16 16 -14 37 4 37
8 0 15 4 15 9 0 4 11 20 24 34 13 14 34 52 46 84 12 32 29 72 39 88 10 17 21
43 25 58 5 22 12 27 37 27 42 0 205 -40 226 -55 20 -15 39 -145 38 -263 0 -60
-3 -75 -18 -83 -16 -10 -16 -12 5 -28 15 -13 22 -29 21 -52 -1 -52 -22 -119
-39 -126 -21 -8 -164 104 -164 128 0 5 15 15 33 22 l32 12 -44 5 c-41 5 -44 7
-62 55 -13 35 -19 78 -20 145 -1 131 -16 173 -19 55 -2 -49 -2 -111 0 -138 2
-44 -1 -50 -44 -94 -25 -25 -46 -53 -46 -62 1 -22 24 -51 42 -51 8 0 23 -9 32
-19 15 -17 17 -36 13 -151 -3 -94 -1 -130 7 -127 7 2 12 44 13 121 0 64 4 123
7 131 10 28 42 15 90 -35 27 -28 64 -57 83 -65 45 -19 49 -35 28 -110 -28
-105 -1 -124 161 -111 85 7 85 7 113 -23 44 -47 104 -51 191 -12 39 17 83 31
98 31 57 -1 352 -88 380 -113 9 -8 42 -25 72 -38 69 -29 208 -118 282 -181 77
-67 144 -189 169 -312 20 -96 31 -118 52 -97 8 8 12 45 12 109 0 95 -1 100
-59 242 -33 80 -79 176 -103 214 -61 94 -196 230 -256 255 -26 11 -64 34 -85
50 -20 16 -65 41 -100 56 -57 25 -63 31 -73 69 -21 76 -29 91 -94 160 -36 37
-65 69 -65 71 0 2 -7 39 -15 82 -19 99 -19 143 -1 143 8 0 67 -13 132 -30 66
-16 142 -30 171 -30 29 0 74 -8 100 -17 26 -9 75 -16 108 -16 33 0 121 1 195
1 74 1 184 8 244 17 138 19 170 19 187 -1 12 -14 14 -14 20 4 6 15 21 20 75
25 88 8 99 -3 48 -47 -38 -35 -77 -46 -89 -26 -11 18 -27 11 -20 -9 3 -11 2
-22 -3 -25 -10 -6 -8 -73 1 -83 12 -11 67 19 67 38 0 24 31 32 90 24 30 -4 50
-3 55 4 9 15 80 14 93 -1 6 -8 11 -128 11 -330 1 -175 5 -328 9 -340 10 -27 7
-230 -3 -333 -11 -103 -9 -350 3 -425 6 -36 17 -96 24 -135 24 -121 1 -546
-47 -885 -8 -58 -20 -161 -26 -230 -5 -69 -14 -177 -20 -240 -13 -157 -11
-199 12 -236 10 -17 19 -41 19 -53 0 -26 43 -69 78 -78 16 -4 33 2 54 17 44
32 69 17 112 -68 52 -103 54 -128 17 -216 -36 -87 -40 -139 -12 -158 25 -18
55 -82 48 -102 -9 -23 -34 -20 -58 9 -12 13 -35 27 -50 30 -16 4 -29 13 -29
21 0 15 -49 44 -75 44 -9 0 -19 9 -22 20 -4 16 -15 20 -61 22 -51 3 -58 6 -70
31 -13 27 -16 28 -79 25 -56 -2 -66 0 -76 17 -10 19 -11 19 -17 -5 -5 -23 -14
-27 -107 -45 -104 -21 -140 -34 -81 -32 27 2 34 -2 36 -20 2 -13 5 -23 6 -23
33 0 110 24 126 40 24 24 58 26 66 5 4 -11 21 -15 58 -15 56 0 79 -10 74 -30
-2 -10 14 -17 51 -23 39 -7 55 -14 58 -28 5 -19 13 -23 73 -34 19 -4 44 -13
55 -19 11 -7 39 -15 63 -19 24 -3 60 -17 80 -31 50 -35 106 -53 242 -79 134
-26 343 -30 453 -9 86 16 184 64 199 97 14 32 -12 85 -53 109 -88 52 -112 98
-61 117 59 23 183 54 255 64 37 5 46 9 38 19 -12 14 -89 4 -258 -35 -51 -11
-100 -18 -110 -15 -30 10 -122 166 -121 205 1 37 -19 58 -62 67 -14 3 -38 11
-53 19 -16 8 -41 15 -55 15 -40 0 -76 27 -135 102 -67 85 -89 146 -91 251 -2
71 -7 93 -40 167 -34 76 -39 99 -48 210 -5 69 -9 130 -9 135 1 6 5 89 10 185
8 155 17 232 62 530 11 72 43 150 61 150 21 0 48 98 72 260 30 205 35 351 17
435 -26 119 -1 227 124 538 66 163 127 308 138 324 10 16 76 16 137 2 25 -6
61 -12 80 -14 19 -2 51 -6 70 -8 19 -3 60 0 90 5 52 9 61 8 145 -26 50 -20
114 -52 142 -71 29 -19 55 -35 58 -35 15 0 1 27 -36 72 -28 33 -39 52 -32 59
6 6 96 12 214 13 112 2 274 9 359 15 164 13 292 7 325 -14 11 -6 37 -18 58
-24 30 -10 47 -27 86 -84 84 -124 99 -163 115 -293 41 -326 51 -652 22 -744
-33 -106 -29 -158 25 -287 10 -25 10 -39 1 -70 -15 -49 -44 -65 -87 -47 -46
20 -92 17 -112 -7 -50 -59 -110 -109 -130 -109 -13 0 -37 -13 -54 -28 -40 -36
-48 -79 -48 -278 -1 -156 9 -243 34 -291 8 -16 15 -34 15 -41 0 -25 59 -128
92 -159 34 -33 84 -50 104 -36 6 5 23 31 37 58 14 28 39 69 55 91 36 49 136
128 189 150 50 21 73 42 73 68 0 12 12 41 26 66 20 35 25 54 21 84 -3 21 -2
48 3 60 4 11 13 50 20 86 6 36 15 70 20 75 4 6 10 24 13 40 9 57 44 132 87
189 45 59 80 159 80 227 0 47 -55 262 -84 331 -9 21 -16 51 -16 67 0 16 -4 41
-10 56 -17 44 -30 232 -31 460 -2 212 -1 224 26 324 45 168 33 228 -83 401
-57 87 -111 139 -181 175 -47 23 -59 25 -173 22 -111 -2 -128 0 -178 22 -30
13 -64 32 -75 43 -18 17 -18 19 -2 35 9 9 31 22 49 28 29 9 33 14 30 40 -8 91
-9 89 30 108 22 11 38 26 38 35 0 32 -71 207 -109 272 -22 36 -65 95 -98 132
-32 36 -86 113 -120 170 -80 132 -210 288 -304 364 -110 89 -113 95 -113 347
-1 231 -2 227 64 221 19 -2 130 -6 247 -9 l212 -4 41 34 c36 30 49 35 92 35
43 0 54 4 80 33 37 39 118 165 118 183 0 7 9 16 20 19 14 4 20 15 20 35 0 16
9 45 21 64 20 35 20 35 0 45 -11 6 -27 11 -36 11 -8 0 -19 10 -24 22 -6 18 -9
19 -14 5 -13 -34 -35 -18 -46 33 -15 70 -16 68 30 112 30 29 44 37 52 29 8 -8
8 -20 -2 -44 -7 -17 -16 -48 -18 -67 l-5 -35 57 55 c85 83 95 107 85 215 -13
148 -38 254 -76 321 -19 33 -34 69 -34 78 0 10 20 41 45 68 31 34 47 63 51 89
7 41 27 65 59 71 15 2 25 -8 42 -46 19 -39 28 -47 44 -43 13 4 32 -5 55 -25
46 -41 74 -33 147 45 84 89 109 123 116 159 6 31 9 33 56 34 28 0 76 4 108 8
l58 8 -3 125 -3 126 -53 36 c-34 24 -73 40 -112 48 -83 16 -113 40 -144 119
l-27 67 7 222 c7 241 11 210 -53 460 -14 55 -36 121 -49 146 -20 40 -22 58
-19 129 4 82 -11 140 -35 140 -21 0 -41 33 -35 59 4 14 3 23 -1 19 -3 -4 -15
-3 -25 3 -27 14 -24 54 6 73 15 10 27 30 31 53 7 35 4 40 -37 76 -60 53 -120
92 -163 107 -19 6 -38 16 -41 21 -4 5 -18 9 -32 9 -20 0 -48 22 -113 88 -48
48 -95 101 -103 118 -34 67 -212 191 -288 201 -22 3 -43 11 -47 17 -4 6 -9 64
-12 129 -3 67 -9 118 -15 118 -5 1 -17 -18 -25 -42 -8 -23 -21 -44 -28 -47
-13 -4 -91 75 -92 94 0 6 -6 17 -14 23 -8 7 -18 25 -21 41 -3 16 -13 34 -21
41 -20 17 -56 -18 -82 -79 -26 -61 -40 -290 -20 -321 25 -40 1 -55 -96 -63
-48 -3 -101 -11 -118 -17 -17 -6 -41 -11 -53 -11 -13 0 -30 -11 -39 -25 -10
-16 -26 -25 -42 -25 -38 0 -205 -50 -242 -72 -18 -11 -37 -29 -43 -39 -6 -11
-34 -36 -62 -54 -29 -19 -81 -57 -117 -85 -35 -27 -71 -50 -78 -50 -29 0 -206
-123 -225 -156 -4 -8 -21 -21 -37 -29 -20 -10 -32 -27 -39 -53 -7 -25 -25 -50
-55 -74 -43 -37 -136 -150 -136 -167 0 -15 -38 -43 -50 -36 -14 9 -96 -65
-138 -123 -18 -26 -43 -52 -55 -59 -12 -6 -37 -30 -56 -53 -29 -36 -33 -47
-28 -81 4 -28 0 -45 -12 -61 -10 -13 -46 -72 -81 -131 -34 -59 -69 -111 -77
-116 -8 -4 -38 -48 -67 -97 -37 -63 -58 -89 -72 -89 -26 0 -28 62 -4 110 l18
36 -39 19 c-21 11 -45 33 -54 49 -14 28 -13 31 11 60 32 39 26 58 -21 67 -59
11 -74 53 -101 279 -8 66 -19 149 -25 185 -16 95 -14 198 5 250 14 41 14 46 0
57 -9 6 -30 9 -49 6 -30 -5 -35 -2 -59 40 -32 55 -99 117 -125 117 -18 0 -65
17 -188 68 -45 19 -65 33 -72 52 -5 14 -12 87 -15 163 l-6 138 35 52 c19 29
42 62 50 73 9 12 20 46 26 75 31 176 32 188 21 241 -6 29 -16 98 -23 153 -15
128 -35 174 -108 244 -67 64 -61 40 -81 326 -6 88 -15 207 -20 265 -24 272
-40 723 -30 832 4 33 -24 69 -89 113 -48 33 -94 45 -105 27z m644 -4058 c3
-32 11 -68 17 -79 6 -11 11 -31 11 -45 0 -14 9 -61 20 -105 24 -96 30 -161 15
-176 -7 -7 -24 13 -58 73 -27 46 -59 98 -73 116 -28 37 -27 55 8 182 27 99 28
102 43 98 7 -3 14 -29 17 -64z m2743 -324 c16 -28 47 -67 69 -88 55 -51 60
-63 47 -114 -10 -37 -8 -49 10 -89 30 -67 43 -74 130 -75 l76 0 8 -38 c8 -30
6 -41 -8 -56 -10 -11 -22 -20 -28 -20 -5 0 -64 -27 -131 -59 -200 -98 -488
-228 -531 -240 -31 -8 -42 -8 -53 3 -20 20 -6 74 27 106 42 40 117 161 126
205 5 22 9 70 9 107 1 65 2 68 43 110 23 24 51 66 63 93 11 28 27 64 35 80 8
17 22 51 31 78 22 61 41 61 77 -3z m290 -266 c31 -20 38 -31 35 -52 -4 -36
-42 -40 -88 -10 -38 26 -48 51 -30 73 18 21 40 18 83 -11z m91 -339 c9 -13 16
-41 16 -62 0 -52 29 -128 72 -188 46 -63 68 -125 68 -193 0 -51 -2 -54 -55
-106 -60 -58 -69 -89 -35 -119 31 -26 24 -44 -27 -71 -18 -9 -46 -37 -63 -62
l-32 -45 -171 5 c-244 7 -458 17 -483 22 -30 5 -41 43 -49 159 -3 55 -8 116
-10 135 -2 19 -8 73 -14 120 -7 64 -7 88 2 97 7 7 69 33 137 57 114 40 300
121 375 162 87 49 222 113 236 114 9 0 24 -11 33 -25z m-4128 -3411 l54 -15 0
-135 c0 -121 -2 -136 -20 -154 -40 -40 -74 -20 -108 60 -23 54 -31 223 -11
246 14 18 19 18 85 -2z m1658 -90 c23 -9 22 -80 -2 -93 -9 -5 -55 -11 -102
-12 -75 -3 -85 -2 -85 14 0 9 23 35 50 56 49 39 98 51 139 35z m-1434 -297
c44 -72 13 -87 -62 -32 -55 40 -60 57 -20 71 34 13 57 2 82 -39z m-1910 -224
c0 -12 -26 -81 -49 -135 -13 -30 -27 -48 -37 -48 -14 0 -16 8 -12 49 6 61 51
141 78 141 11 0 20 -3 20 -7z m-785 -103 c4 -6 28 -79 53 -163 41 -132 46
-163 45 -233 -1 -86 -22 -154 -47 -154 -22 0 -27 13 -36 103 -7 68 -25 177
-57 340 -8 42 6 117 22 117 8 0 17 -5 20 -10z"/>
<path d="M2893 4308 c-25 -32 -26 -40 -4 -26 12 7 21 18 21 25 0 16 -5 16 -17
1z"/>
<path d="M4595 4200 c3 -5 14 -10 23 -10 15 0 15 2 2 10 -20 13 -33 13 -25 0z"/>
<path d="M2870 4100 c0 -5 5 -10 10 -10 6 0 10 5 10 10 0 6 -4 10 -10 10 -5 0
-10 -4 -10 -10z"/>
<path d="M4709 4073 c-13 -16 -12 -17 4 -4 16 13 21 21 13 21 -2 0 -10 -8 -17
-17z"/>
<path d="M4864 4063 c9 -18 21 -33 27 -33 13 0 -4 32 -27 51 -16 13 -16 12 0
-18z"/>
<path d="M4653 4037 c-13 -5 -23 -16 -23 -24 0 -18 7 -16 32 7 26 24 21 31 -9
17z"/>
<path d="M2538 3849 c-46 -63 -54 -97 -16 -62 28 25 71 100 66 115 -2 6 -25
-17 -50 -53z"/>
<path d="M847 803 c10 -16 21 -22 32 -18 9 4 31 9 49 12 54 9 31 28 -36 29
l-61 1 16 -24z"/>
<path d="M1047 790 c6 -21 -3 -25 -97 -35 -30 -3 -77 -10 -105 -14 -46 -7 -48
-8 -22 -15 15 -5 48 -5 74 -1 43 6 45 5 40 -14 -3 -14 1 -25 13 -31 23 -12 50
-3 44 15 -8 19 9 26 84 33 58 6 67 10 67 27 0 15 -8 21 -32 23 -17 2 -37 10
-43 18 -17 20 -29 17 -23 -6z"/>
<path d="M2870 700 c-8 -5 -12 -11 -9 -14 8 -8 79 6 79 15 0 12 -51 11 -70 -1z"/>
<path d="M4606 570 c-48 -10 -91 -21 -94 -24 -10 -11 32 -6 88 9 30 8 67 15
82 15 15 0 30 5 33 10 8 13 -3 12 -109 -10z"/>
</g>
</svg>
