<svg width="1058" height="785" viewBox="0 0 1058 785" fill="none" xmlns="http://www.w3.org/2000/svg">
<g id="undraw_Ride_a_bicycle_2yok 1" clip-path="url(#clip0)">
<path id="Vector" d="M209.73 115.43C204.25 122.08 202.14 131.43 199.78 140.22C180.78 211.06 133.96 268.04 80.64 308.74C58.06 325.98 30.57 349.1 35.51 380.01C38.17 396.61 49.84 408.83 58.51 422.35C76.7 450.66 82.6 489.14 73.93 523.03C64.07 561.59 36.51 597.57 45.04 636.56C50.3 660.56 68.16 677.64 85.33 692.32C112.117 715.207 139.757 736.647 168.25 756.64C187.35 770.04 207.67 783.08 229.93 784.78C249.53 786.28 268.73 778.83 287.34 771.48C303.6 765.05 320.27 758.36 333.4 745.48C341.97 737.07 348.8 726.22 358.32 719.34C380.68 703.18 409.4 713.42 435.04 720.34C495.54 736.58 560.29 730.65 617.86 703.6C706.17 662.1 773.48 574.95 859.86 528.19C897 508.08 937.4 495.6 971.79 469.7C991.165 454.953 1007.81 436.936 1020.99 416.46C1046.99 376.35 1061.05 325.21 1056.99 275.15C1052.93 225.09 1030.18 176.85 994.45 148.59C956.2 118.34 907.89 112.69 864.37 94.53C819.43 75.77 779.45 43.53 734.94 23.4C698.924 7.15665 659.728 -0.81716 620.228 0.0636141C580.728 0.944389 541.926 10.6574 506.67 28.49C458.23 52.99 409.13 110.15 355.18 114.49C316.74 117.49 239.75 79.01 209.73 115.43Z" fill="url(#paint0_linear)"/>
<path id="Vector_2" d="M842.1 448.32C842.1 448.32 859.6 482.67 845.34 501.46C831.08 520.25 846.64 571.46 846.64 571.46" stroke="#6C63FF" stroke-miterlimit="10"/>
<path id="Vector_3" d="M847.28 437.63C847.28 444.25 842.42 449.63 842.42 449.63C842.42 449.63 837.56 444.26 837.56 437.63C837.56 431 842.42 425.63 842.42 425.63C842.42 425.63 847.28 431.01 847.28 437.63Z" fill="#6C63FF"/>
<path id="Vector_4" d="M851.17 448.32C851.17 448.32 833.67 482.67 847.93 501.46C862.19 520.25 846.63 571.46 846.63 571.46" stroke="#6C63FF" stroke-miterlimit="10"/>
<path id="Vector_5" d="M845.99 437.63C845.99 444.25 850.85 449.63 850.85 449.63C850.85 449.63 855.71 444.26 855.71 437.63C855.71 431 850.85 425.63 850.85 425.63C850.85 425.63 845.99 431.01 845.99 437.63Z" fill="#6C63FF"/>
<path id="Vector_6" opacity="0.1" d="M845.99 437.63C845.99 444.25 850.85 449.63 850.85 449.63C850.85 449.63 855.71 444.26 855.71 437.63C855.71 431 850.85 425.63 850.85 425.63C850.85 425.63 845.99 431.01 845.99 437.63Z" fill="black"/>
<path id="Vector_7" d="M858.3 448.32C858.3 448.32 875.8 482.67 861.54 501.46C847.28 520.25 862.84 571.46 862.84 571.46" stroke="#6C63FF" stroke-miterlimit="10"/>
<path id="Vector_8" d="M863.48 437.63C863.48 444.25 858.62 449.63 858.62 449.63C858.62 449.63 853.76 444.26 853.76 437.63C853.76 431 858.62 425.63 858.62 425.63C858.62 425.63 863.48 431.01 863.48 437.63Z" fill="#6C63FF"/>
<path id="Vector_9" d="M860.76 465.15C856.17 469.92 848.94 470.42 848.94 470.42C848.94 470.42 849.16 463.18 853.75 458.42C858.34 453.66 865.57 453.15 865.57 453.15C865.57 453.15 865.35 460.38 860.76 465.15Z" fill="#6C63FF"/>
<path id="Vector_10" d="M861.22 488.85C856.63 493.62 849.4 494.12 849.4 494.12C849.4 494.12 849.62 486.88 854.21 482.12C858.8 477.36 866.03 476.85 866.03 476.85C866.03 476.85 865.85 484.07 861.22 488.85Z" fill="#6C63FF"/>
<path id="Vector_11" d="M836.32 501.88C840.66 506.88 840.51 514.12 840.51 514.12C840.51 514.12 833.32 513.25 828.98 508.25C824.64 503.25 824.79 496.01 824.79 496.01C824.79 496.01 831.98 496.88 836.32 501.88Z" fill="#6C63FF"/>
<path id="Vector_12" d="M840.35 451.35C845.87 455.01 847.66 462.03 847.66 462.03C847.66 462.03 840.5 463.12 834.98 459.46C829.46 455.8 827.67 448.78 827.67 448.78C827.67 448.78 834.85 447.69 840.35 451.35Z" fill="#6C63FF"/>
<path id="Vector_13" opacity="0.1" d="M840.35 451.35C845.87 455.01 847.66 462.03 847.66 462.03C847.66 462.03 840.5 463.12 834.98 459.46C829.46 455.8 827.67 448.78 827.67 448.78C827.67 448.78 834.85 447.69 840.35 451.35Z" fill="black"/>
<path id="Vector_14" d="M867.37 448.32C867.37 448.32 849.85 482.67 864.13 501.49C878.41 520.31 862.83 571.49 862.83 571.49" stroke="#6C63FF" stroke-miterlimit="10"/>
<path id="Vector_15" d="M862.19 437.63C862.19 444.25 867.05 449.63 867.05 449.63C867.05 449.63 871.91 444.26 871.91 437.63C871.91 431 867.05 425.63 867.05 425.63C867.05 425.63 862.19 431.01 862.19 437.63Z" fill="#6C63FF"/>
<path id="Vector_16" opacity="0.1" d="M862.19 437.63C862.19 444.25 867.05 449.63 867.05 449.63C867.05 449.63 871.91 444.26 871.91 437.63C871.91 431 867.05 425.63 867.05 425.63C867.05 425.63 862.19 431.01 862.19 437.63Z" fill="black"/>
<path id="Vector_17" d="M863.59 465.66C858.94 470.38 858.59 477.66 858.59 477.66C858.59 477.66 865.82 477.25 870.47 472.53C875.12 467.81 875.47 460.53 875.47 460.53C875.47 460.53 868.23 460.94 863.59 465.66Z" fill="#6C63FF"/>
<path id="Vector_18" opacity="0.1" d="M863.59 465.66C858.94 470.38 858.59 477.66 858.59 477.66C858.59 477.66 865.82 477.25 870.47 472.53C875.12 467.81 875.47 460.53 875.47 460.53C875.47 460.53 868.23 460.94 863.59 465.66Z" fill="black"/>
<path id="Vector_19" d="M872.7 498.49C868.05 503.21 867.7 510.49 867.7 510.49C867.7 510.49 874.93 510.08 879.58 505.36C884.23 500.64 884.58 493.36 884.58 493.36C884.58 493.36 877.35 493.75 872.7 498.49Z" fill="#6C63FF"/>
<path id="Vector_20" d="M859.29 491.26C859.29 491.26 869.82 474.66 884.61 474.26" stroke="#6C63FF" stroke-miterlimit="10"/>
<path id="Vector_21" d="M851.09 481.23C851.09 481.23 840.56 464.63 825.77 464.23" stroke="#6C63FF" stroke-miterlimit="10"/>
<path id="Vector_22" d="M849.72 504.93C849.72 504.93 860.25 488.33 875.04 487.93" stroke="#6C63FF" stroke-miterlimit="10"/>
<path id="Vector_23" d="M884.13 476.9C885.638 476.9 886.86 475.678 886.86 474.17C886.86 472.662 885.638 471.44 884.13 471.44C882.622 471.44 881.4 472.662 881.4 474.17C881.4 475.678 882.622 476.9 884.13 476.9Z" fill="#6C63FF"/>
<path id="Vector_24" d="M826.03 467.1C827.538 467.1 828.76 465.878 828.76 464.37C828.76 462.862 827.538 461.64 826.03 461.64C824.522 461.64 823.3 462.862 823.3 464.37C823.3 465.878 824.522 467.1 826.03 467.1Z" fill="#6C63FF"/>
<path id="Vector_25" d="M857.47 510.4C857.47 510.4 846.94 493.8 832.15 493.4" stroke="#6C63FF" stroke-miterlimit="10"/>
<path id="Vector_26" d="M832.41 496.27C833.918 496.27 835.14 495.048 835.14 493.54C835.14 492.032 833.918 490.81 832.41 490.81C830.902 490.81 829.68 492.032 829.68 493.54C829.68 495.048 830.902 496.27 832.41 496.27Z" fill="#6C63FF"/>
<path id="Vector_27" d="M875.24 490.8C876.748 490.8 877.97 489.578 877.97 488.07C877.97 486.562 876.748 485.34 875.24 485.34C873.732 485.34 872.51 486.562 872.51 488.07C872.51 489.578 873.732 490.8 875.24 490.8Z" fill="#6C63FF"/>
<path id="Vector_28" d="M915.69 551.49C915.69 551.49 890.31 546.41 883.54 539.64C876.77 532.87 846.31 521.06 842.93 529.49C839.55 537.92 797.24 566.72 826.01 571.8C854.78 576.88 893.7 578.57 902.16 575.18C910.62 571.79 915.69 551.49 915.69 551.49Z" fill="#A8A8A8"/>
<path id="Vector_29" opacity="0.2" d="M826 568.68C854.77 573.76 893.69 575.45 902.15 572.06C908.59 569.48 913.07 557.06 914.84 551.34L915.69 551.52C915.69 551.52 910.61 571.83 902.15 575.21C893.69 578.59 854.77 576.9 826 571.83C817.7 570.36 815.32 566.92 816.22 562.57C816.93 565.4 819.85 567.59 826 568.68Z" fill="black"/>
<path id="Vector_30" d="M67.25 588.15C67.25 588.15 75.63 599.15 63.38 615.65C51.13 632.15 41.03 646.16 45.12 656.49C45.12 656.49 63.6 625.76 78.64 625.33C93.68 624.9 83.79 606.63 67.25 588.15Z" fill="#6C63FF"/>
<path id="Vector_31" opacity="0.1" d="M67.25 588.15C67.9802 589.21 68.556 590.368 68.96 591.59C83.64 608.83 91.45 624.92 77.35 625.33C64.21 625.71 48.45 649.2 44.67 655.14C44.7947 655.598 44.9449 656.049 45.12 656.49C45.12 656.49 63.6 625.76 78.64 625.33C93.68 624.9 83.79 606.63 67.25 588.15Z" fill="black"/>
<path id="Vector_32" d="M82.85 602.11C82.85 605.97 82.42 609.11 81.85 609.11C81.28 609.11 80.85 605.98 80.85 602.11C80.85 598.24 81.39 600.11 81.92 600.11C82.45 600.11 82.85 598.26 82.85 602.11Z" fill="#FFD037"/>
<path id="Vector_33" d="M88.17 606.72C84.78 608.57 81.83 609.72 81.58 609.21C81.33 608.7 83.86 606.86 87.25 605.02C90.64 603.18 89.3 604.52 89.56 605.02C89.82 605.52 91.56 604.87 88.17 606.72Z" fill="#FFD037"/>
<path id="Vector_34" d="M22.98 588.15C22.98 588.15 14.6 599.15 26.85 615.65C39.1 632.15 49.2 646.16 45.11 656.48C45.11 656.48 26.63 625.75 11.59 625.32C-3.45002 624.89 6.43998 606.63 22.98 588.15Z" fill="#6C63FF"/>
<path id="Vector_35" opacity="0.1" d="M22.98 588.15C22.2497 589.21 21.674 590.368 21.27 591.59C6.59999 608.83 -1.22001 624.92 12.85 625.32C25.99 625.7 41.75 649.19 45.53 655.13C45.4053 655.588 45.255 656.039 45.08 656.48C45.08 656.48 26.6 625.75 11.56 625.32C-3.48001 624.89 6.43999 606.63 22.98 588.15Z" fill="black"/>
<path id="Vector_36" d="M7.40997 602.11C7.40997 605.97 7.83997 609.11 8.40997 609.11C8.97997 609.11 9.40997 605.98 9.40997 602.11C9.40997 598.24 8.86997 600.11 8.33997 600.11C7.80997 600.11 7.40997 598.26 7.40997 602.11Z" fill="#FFD037"/>
<path id="Vector_37" d="M2.05997 606.72C5.44997 608.57 8.39998 609.72 8.64998 609.21C8.89998 608.7 6.36997 606.86 2.97997 605.02C-0.410027 603.18 0.929975 604.52 0.669975 605.02C0.409975 605.52 -1.33003 604.87 2.05997 606.72Z" fill="#FFD037"/>
<path id="Vector_38" d="M10.07 655.04C10.07 655.04 33.5 654.32 40.56 649.29C47.62 644.26 76.56 638.29 78.35 646.29C80.14 654.29 113.56 686.4 87.11 686.61C60.66 686.82 25.65 682.49 18.61 678.23C11.57 673.97 10.07 655.04 10.07 655.04Z" fill="#A8A8A8"/>
<path id="Vector_39" d="M10.07 655.04C10.07 655.04 33.5 654.32 40.56 649.29C47.62 644.26 76.56 638.29 78.35 646.29C80.14 654.29 113.56 686.4 87.11 686.61C60.66 686.82 25.65 682.49 18.61 678.23C11.57 673.97 10.07 655.04 10.07 655.04Z" fill="#A8A8A8"/>
<path id="Vector_40" opacity="0.2" d="M87.59 683.84C61.14 684.05 26.13 679.72 19.08 675.43C13.71 672.16 11.57 660.43 10.86 655.02H10.08C10.08 655.02 11.56 673.92 18.61 678.21C25.66 682.5 60.67 686.84 87.12 686.62C94.76 686.56 97.39 683.84 97.25 679.82C96.19 682.28 93.27 683.79 87.59 683.84Z" fill="black"/>
<path id="Vector_41" d="M680.64 498.432C670.268 498.426 659.938 499.744 649.9 502.352L613.03 388.552L612.55 387.072L615.69 386.152C623.09 369.882 603.36 367.442 603.36 367.442L601.7 368.002C591.27 365.002 573.2 363.412 554.45 362.672V339.952C554.497 327.492 556.749 315.138 561.1 303.462C561.63 302.032 562.1 300.692 562.46 299.412C562.54 299.152 562.62 298.892 562.69 298.642L562.82 298.172C562.91 297.842 563.01 297.502 563.09 297.172C563.17 296.842 563.21 296.712 563.26 296.472C563.31 296.232 563.38 296.002 563.43 295.772L563.5 295.442C563.58 295.102 563.65 294.772 563.72 294.442C563.72 294.302 563.77 294.162 563.8 294.022C563.83 293.882 563.91 293.462 563.96 293.182C564.01 292.902 564.02 292.802 564.05 292.612C564.08 292.422 564.12 292.192 564.15 291.992C564.18 291.792 564.15 291.732 564.2 291.602C564.25 291.472 564.27 291.112 564.3 290.872V290.682C564.3 290.392 564.37 290.102 564.39 289.822C564.41 289.542 564.39 289.572 564.39 289.442C564.39 289.312 564.39 289.032 564.39 288.832C564.39 288.632 564.39 288.632 564.39 288.532C564.39 288.432 564.39 288.112 564.39 287.902C564.39 287.692 564.39 287.482 564.39 287.282C564.39 287.082 564.39 287.122 564.39 287.042C564.39 286.962 564.39 286.712 564.39 286.552C564.39 286.392 564.39 286.342 564.39 286.252C564.39 286.162 564.39 286.012 564.39 285.892C564.39 285.772 564.39 285.642 564.39 285.522C564.39 285.402 564.39 285.282 564.39 285.162C564.39 285.042 564.39 284.952 564.39 284.852C564.004 280.984 563.95 277.09 564.23 273.212L565.63 255.692C569.751 254.431 573.593 252.395 576.95 249.692C576.95 249.692 577.84 223.562 580.52 202.882C582.244 190.018 580.689 176.927 575.998 164.826C571.307 152.724 563.634 142.004 553.69 133.662C551.89 132.172 550.02 130.742 548.07 129.412C548.44 127.998 548.72 126.562 548.91 125.112C549.801 123.478 550.868 121.946 552.09 120.542C553.77 118.882 556.09 117.932 558.01 116.542C562.2 113.412 564.01 108.312 565.21 103.432C567.67 93.4324 568.38 82.5624 564.21 73.0424C560.04 63.5224 549.9 55.7524 538.87 56.2524C535.49 56.4024 532.19 57.2524 528.87 57.6424C520.09 58.5324 511.4 55.6424 502.59 55.1124C500.036 54.7991 497.444 55.1433 495.06 56.1124C493.271 57.0919 491.723 58.4585 490.53 60.1124C486.498 65.3307 483.732 71.4136 482.45 77.8824C481.37 82.7524 481.37 87.1624 475.34 87.8824C468.55 88.7324 446.76 84.1724 451.34 98.5324C453.53 105.322 464.04 105.532 469.43 110.532C472.23 113.132 473.52 116.972 476.6 119.292L476.72 119.372C462.72 119.582 439.61 125.122 425.99 156.112C405.45 202.872 393.12 218.112 376.68 230.322C361.04 241.932 353.77 279.322 353.1 282.902C348.77 293.832 346.41 313.902 360.24 347.222C371.96 375.472 382.16 394.702 389.35 409.152L387.94 409.022C384.94 408.793 381.955 408.396 379 407.832C367.41 405.632 338.2 401.032 330.34 408.832C320.47 418.592 323.76 435.682 350.07 438.122C356.086 438.627 362.127 438.767 368.16 438.542V481.392L367.59 481.742C362.44 484.812 357.48 487.562 354.14 489.372L352.92 490.032C351.956 488.449 351.153 486.774 350.52 485.032L323.36 502.892L336.84 514.082L323.13 528.252C322.7 527.872 322.28 527.482 321.85 527.102C299.84 508.277 271.813 497.96 242.85 498.022C176.1 498.022 122 551.572 122 617.622C122 683.672 176.11 737.222 242.85 737.222C302.63 737.222 352.27 694.222 361.98 637.842C384.98 639.552 406.36 640.072 420.4 638.022V651.802H482.03V635.142L483.57 635.042C511.3 633.042 496.92 620.812 496.92 620.812C490.56 620.812 483.56 617.272 478.64 614.182C476.91 613.092 475.13 612.102 473.31 611.182C474.98 605.256 474.473 598.927 471.88 593.342L612.45 448.342L633.93 507.742L632.5 508.332C589.71 526.732 559.78 568.942 559.78 618.072C559.78 684.132 613.89 737.672 680.63 737.672C747.37 737.672 801.49 684.082 801.49 618.082C801.49 552.082 747.36 498.432 680.64 498.432ZM687.08 707.692L682.08 630.502C683.005 630.373 683.913 630.145 684.79 629.822L726.09 695.712C714.156 702.596 700.82 706.691 687.08 707.692V707.692ZM606.47 670.812L669.72 625.442L669.84 625.602L643.9 700.492C629.013 694.091 616.096 683.848 606.47 670.812V670.812ZM723.07 537.882L688.36 606.512C686.737 605.005 684.759 603.931 682.61 603.392L681.77 600.802L684.16 527.402C697.747 527.957 711.04 531.534 723.07 537.872V537.882ZM679.94 595.082L658.8 529.852C665.818 528.183 673.006 527.34 680.22 527.342H682.14L679.94 595.082ZM642.36 535.452C642.83 535.242 643.36 535.052 643.78 534.842L669.86 607.082C668.829 608.132 667.984 609.35 667.36 610.682L600.5 573.582C603.015 569.182 605.895 565 609.11 561.082L616.57 552.972C624.101 545.7 632.824 539.773 642.36 535.452ZM599.61 575.362L666.75 612.622C666.447 613.724 666.293 614.86 666.29 616.002C666.29 616.172 666.29 616.342 666.29 616.512L589.03 615.152C589.391 601.252 593.001 587.628 599.57 575.372L599.61 575.362ZM693.34 616.232L767.36 590.702C771.296 603.223 772.435 616.455 770.699 629.464C768.962 642.473 764.392 654.942 757.31 665.992L691.43 624.442C692.723 622.405 693.416 620.045 693.43 617.632C693.412 617.167 693.368 616.703 693.3 616.242L693.34 616.232ZM766.76 588.762L692.95 614.222C692.21 612.074 691.202 610.028 689.95 608.132L724.95 538.842C744.565 549.753 759.445 567.539 766.72 588.772L766.76 588.762ZM592.97 394.462L598.16 408.802L508.64 436.382L507.71 417.892L558.71 402.892C558.816 404.036 558.745 405.19 558.5 406.312C559.788 404.962 560.95 403.496 561.97 401.932L592.39 392.992L592.97 394.462ZM249.29 707.262L244.29 630.262C245.302 630.247 246.308 630.116 247.29 629.872L288.29 695.342C276.354 702.203 263.022 706.278 249.29 707.262V707.262ZM168.68 670.402L231.93 625.082L232.05 625.242L206.11 700.082C191.223 693.681 178.306 683.438 168.68 670.402V670.402ZM151.21 614.742C151.578 600.84 155.194 587.217 161.77 574.962L230.05 612.852C229.682 613.895 229.45 614.98 229.36 616.082L151.21 614.742ZM285.28 537.472L253.65 600.082L248.81 605.082C247.3 604.502 245.697 604.204 244.08 604.202H243.89L246.36 527.002C259.951 527.554 273.247 531.131 285.28 537.472V537.472ZM315.54 563.172C321.317 570.801 325.834 579.305 328.92 588.362L262.43 611.292L315.54 563.172ZM258.59 614.772L329.59 590.302C330.257 592.509 330.87 594.752 331.43 597.032C331.55 597.552 331.66 598.032 331.77 598.582C299.86 605.212 270.1 612.532 257.65 615.662L258.59 614.772ZM241.83 604.232C239.848 604.313 237.91 604.839 236.16 605.772L209.27 533.082C219.849 529.003 231.092 526.918 242.43 526.932C243.07 526.932 243.71 526.932 244.35 526.932L241.83 604.232ZM234.36 606.932C232.92 608.025 231.721 609.404 230.84 610.982L162.76 573.172C165.27 568.762 168.147 564.57 171.36 560.642L178.84 552.502C187.092 544.543 196.766 538.206 207.36 533.822L234.36 606.932ZM331.88 635.082C329.679 645.925 325.481 656.264 319.5 665.572L254.84 624.792C268.03 626.892 299.07 631.592 331.88 635.082ZM360.75 591.282C356.742 573.724 348.788 557.309 337.49 543.282L340.66 540.412L368.22 567.322V591.602C365.86 592.009 363.483 592.429 361.09 592.862C360.98 592.332 360.88 591.812 360.76 591.292L360.75 591.282ZM368.22 540.172L367.62 539.592L368.22 540.082V540.172ZM389.6 504.942L389.67 504.892L391.18 503.892L391.85 503.442L392.59 502.952L393.43 502.402L394.21 501.902L395.16 501.292L395.95 500.792L397.11 500.072L397.82 499.632L399.06 498.882C399.551 503.419 400.682 507.863 402.42 512.082L402.81 547.912C397.012 541.395 392.526 533.82 389.6 525.602V504.942ZM504.21 347.942C506.64 350.102 508.21 351.442 508.21 351.442C508.21 351.442 513.36 356.082 519.22 362.082C514.01 362.082 509.17 362.082 504.92 362.192L504.21 347.942ZM506 383.592C514.35 383.882 525.21 384.172 536.77 384.252C536.85 384.502 536.93 384.752 536.98 384.982C539.341 385.712 541.65 386.6 543.89 387.642L506.83 400.222L506 383.592ZM515.42 317.892C515.42 317.892 507.79 297.892 498.48 282.772C503.39 268.392 512.54 253.182 529.63 246.442L529.51 247.812L529.45 248.552C528.91 254.862 528.29 262.552 527.76 270.452V270.912C527.7 271.852 527.637 272.796 527.57 273.742V274.232L527.5 275.392L527.43 276.532L527.37 277.532C527.33 278.199 527.29 278.866 527.25 279.532V280.102C527.25 280.676 527.22 281.249 527.16 281.822V282.492C527.127 283.159 527.093 283.846 527.06 284.552V284.672C527.02 285.439 526.987 286.199 526.96 286.952V287.292C526.96 287.959 526.933 288.652 526.88 289.372V289.532C526.82 291.059 526.773 292.549 526.74 294.002V294.162C526.74 295.612 526.68 297.012 526.66 298.362V298.482C526.66 299.842 526.66 301.142 526.66 302.372C526.66 302.966 526.66 303.546 526.66 304.112V304.222C526.66 305.342 526.73 306.392 526.79 307.362V307.542C526.85 308.482 526.93 309.352 527.02 310.122V310.302C527.06 310.629 527.103 310.939 527.15 311.232V311.392C527.21 311.712 527.26 312.022 527.33 312.292V312.402C527.38 312.632 527.44 312.842 527.5 313.032L527.55 313.202C527.614 313.397 527.691 313.588 527.78 313.772C529.49 317.152 530.31 327.552 530.68 338.562C521.87 327.182 515.41 317.872 515.41 317.872L515.42 317.892ZM389.6 586.642V557.812L403.04 568.952L403.23 586.662C398.93 587.082 394.36 587.662 389.59 588.282L389.6 586.642ZM389.6 436.922C393.08 436.482 396.5 435.922 399.81 435.382C400.303 437.857 400.491 440.382 400.37 442.902V458.152H401.06C397.101 460.661 393.276 463.375 389.6 466.282V436.932V436.922ZM302.66 549.412L258.45 595.082L287.07 538.432C292.135 541.252 296.919 544.547 301.36 548.272C301.81 548.642 302.23 549.082 302.66 549.412ZM151.18 617.222C151.18 617.072 151.18 616.922 151.18 616.772L229.36 618.152C229.486 619.962 229.993 621.724 230.85 623.322L167.52 668.752C156.877 653.678 151.169 635.675 151.18 617.222V617.222ZM242.44 707.532C230.642 707.545 218.952 705.284 208.01 700.872L233.64 626.872C236.008 628.991 239.063 630.181 242.24 630.222L247.24 707.392C245.65 707.482 244.05 707.532 242.44 707.532ZM290.06 694.252L249.27 629.182C250.837 628.515 252.26 627.551 253.46 626.342L318.36 667.282C310.985 678.21 301.33 687.411 290.06 694.252V694.252ZM455.24 579.182C452.875 578.514 450.428 578.178 447.97 578.182H447.15H446.33C442.173 578.17 438.072 579.14 434.36 581.012C432.62 570.272 431.74 556.592 435.63 546.062C437.946 539.701 439.686 533.145 440.83 526.472L449.18 479.252L604.55 426.532L606.45 431.792L455.24 579.182ZM588.97 617.632C588.97 617.482 588.97 617.332 588.97 617.182L666.5 618.552C667.072 620.328 667.774 622.06 668.6 623.732L605.27 669.162C594.641 654.083 588.947 636.081 588.97 617.632V617.632ZM680.23 707.942C668.432 707.955 656.742 705.694 645.8 701.282L671.43 627.282C673.798 629.401 676.853 630.591 680.03 630.632L685.03 707.812C683.437 707.899 681.837 707.942 680.23 707.942V707.942ZM727.86 694.672L686.67 628.972C688.008 628.226 689.206 627.251 690.21 626.092L756.21 667.702C748.819 678.635 739.147 687.836 727.86 694.672V694.672Z" fill="url(#paint1_linear)"/>
<g id="man bike">
<path id="Vector_42" d="M387 554.303L344.293 512.159L330.947 525.683L373.654 567.827L387 554.303Z" fill="#6C63FF"/>
<path id="Vector_43" d="M387 554.303L344.293 512.159L330.947 525.683L373.654 567.827L387 554.303Z" fill="#3E39A0"/>
<path id="Vector_44" d="M354.48 491.99C354.48 491.99 379.27 478.91 388.85 470.49C394.617 465.444 400.818 460.917 407.38 456.96L438.48 438.03L503.48 433.03L506.48 444.03C506.48 444.03 511.48 460.03 461.48 474.03C411.48 488.03 386.48 510.03 386.48 510.03C386.48 510.03 354.48 520.99 354.48 491.99Z" fill="#DB8B8B"/>
<path id="Vector_45" opacity="0.1" d="M389.13 507.86C387.36 509.21 386.48 509.99 386.48 509.99C386.48 509.99 354.48 520.99 354.48 491.99C354.48 491.99 356.03 491.17 358.48 489.8C360.955 493.831 364.423 497.16 368.551 499.469C372.679 501.778 377.33 502.99 382.06 502.99H385.45L389.13 507.86Z" fill="black"/>
<path id="Vector_46" opacity="0.05" d="M505.54 449.55C502.76 455.44 493.17 465.12 461.48 473.99C420.87 485.36 396.75 501.99 389.13 507.86C387.36 509.21 386.48 509.99 386.48 509.99C386.48 509.99 354.48 520.99 354.48 491.99C354.48 491.99 356.03 491.17 358.48 489.8C365.91 485.73 381.64 476.8 388.82 470.45C394.586 465.403 400.787 460.875 407.35 456.92L438.45 437.99L450.03 437.1L503.45 432.99L506.45 443.99C506.45 443.99 507.15 446.14 505.54 449.55Z" fill="black"/>
<path id="Vector_47" d="M354.98 485.49L328.48 502.99L406.08 567.99C406.08 567.99 417.48 560.99 411.48 552.99C411.48 552.99 391.48 535.99 390.48 511.99L384.48 503.99H381.09C375.358 503.991 369.767 502.211 365.089 498.897C360.412 495.583 356.88 490.898 354.98 485.49V485.49Z" fill="#ABB1D1"/>
<path id="Vector_48" opacity="0.1" d="M505.54 449.55C489.54 441.82 450.48 440.99 450.48 440.99L450.06 437.1L503.48 432.99L506.48 443.99C506.48 443.99 507.15 446.14 505.54 449.55Z" fill="black"/>
<path id="Vector_49" d="M450.48 438.99C450.48 438.99 497.48 439.99 509.48 449.99L503.48 328.99H438.48L450.48 438.99Z" fill="#ABB1D1"/>
<path id="Vector_50" opacity="0.05" d="M450.48 438.49C450.48 438.49 497.48 439.49 509.48 449.49L503.48 328.49H438.48L450.48 438.49Z" fill="black"/>
<path id="Vector_51" d="M488.24 364.95C488.24 364.95 605.89 360.95 608.29 376.16C610.69 391.37 490.64 384.96 490.64 384.96C490.64 384.96 481.04 375.35 488.24 364.95Z" fill="#535461"/>
<path id="Vector_52" opacity="0.05" d="M488.24 364.95C488.24 364.95 605.89 360.95 608.29 376.16C610.69 391.37 490.64 384.96 490.64 384.96C490.64 384.96 481.04 375.35 488.24 364.95Z" fill="black"/>
<path id="Vector_53" d="M393 425.78H372.19V606.66H393V425.78Z" fill="#201E4A"/>
<path id="Vector_54" opacity="0.1" d="M393 425.77V439.7C386.08 440.6 379 441.17 372.19 441.39V425.77H393Z" fill="black"/>
<path id="Vector_55" d="M391.44 410.78C388.52 410.554 385.616 410.164 382.74 409.61C371.46 407.45 343.02 402.92 335.37 410.61C325.77 420.21 328.97 437.02 354.58 439.42C380.19 441.82 424.21 435.42 433.02 425.81C433.02 425.77 417.09 412.75 391.44 410.78Z" fill="#535461"/>
<path id="Vector_56" d="M387.4 475.4L605.9 407.37L613.1 424.18L389 501.01L387.4 475.4Z" fill="#201E4A"/>
<path id="Vector_57" d="M452.23 582.65L609.9 427.38L618.7 440.18L468.23 597.05L452.23 582.65Z" fill="#201E4A"/>
<path id="Vector_58" opacity="0.1" d="M653.58 529.85C648.584 531.142 643.712 532.872 639.02 535.02L629.46 508.31C634.477 506.123 639.644 504.295 644.92 502.84L653.58 529.85Z" fill="black"/>
<path id="Vector_59" d="M680.33 608.26L669.13 614.66L590.99 396.33L587.49 386.56L605.9 376.15L610.51 390.53L680.33 608.26Z" fill="#201E4A"/>
<path id="Vector_60" opacity="0.1" d="M610.51 390.53L590.99 396.33L587.49 386.56L605.9 376.15L610.51 390.53Z" fill="black"/>
<path id="Vector_61" d="M491.44 407.37L601.09 369.75C601.09 369.75 620.3 372.15 613.09 388.16L502.65 420.97C502.65 420.97 485.85 422.57 491.44 407.37Z" fill="#535461"/>
<path id="Vector_62" opacity="0.1" d="M367.79 615.86C367.789 621.994 367.314 628.119 366.37 634.18C356.77 633.49 346.85 632.49 337.13 631.49C339.289 619.599 339.021 607.394 336.34 595.61C345.81 593.61 355.48 591.7 364.92 589.97C366.833 598.467 367.795 607.15 367.79 615.86V615.86Z" fill="black"/>
<path id="Vector_63" opacity="0.1" d="M393 585.38V606.65H372.19V588.65C379.39 587.4 386.39 586.29 393 585.38Z" fill="black"/>
<path id="Vector_64" d="M258.54 615.49C258.54 615.49 426.62 571.49 440.22 588.28C453.82 605.07 468.23 627.49 425.85 635.49C383.47 643.49 255.37 621.88 255.37 621.88L258.54 615.49Z" fill="#201E4A"/>
<path id="Vector_65" opacity="0.1" d="M341.21 541.37L319.85 560.92C316.067 556.064 311.791 551.614 307.09 547.64L327.03 526.81C332.164 531.249 336.908 536.12 341.21 541.37V541.37Z" fill="black"/>
<path id="Vector_66" opacity="0.1" d="M251.34 628.27C258.415 628.27 264.15 622.535 264.15 615.46C264.15 608.385 258.415 602.65 251.34 602.65C244.265 602.65 238.53 608.385 238.53 615.46C238.53 622.535 244.265 628.27 251.34 628.27Z" fill="black"/>
<path id="Vector_67" opacity="0.1" d="M675.13 627.07C682.205 627.07 687.94 621.335 687.94 614.26C687.94 607.185 682.205 601.45 675.13 601.45C668.055 601.45 662.32 607.185 662.32 614.26C662.32 621.335 668.055 627.07 675.13 627.07Z" fill="black"/>
<path id="Vector_68" opacity="0.1" d="M448.22 628.27C462.364 628.27 473.83 616.804 473.83 602.66C473.83 588.516 462.364 577.05 448.22 577.05C434.076 577.05 422.61 588.516 422.61 602.66C422.61 616.804 434.076 628.27 448.22 628.27Z" fill="black"/>
<path id="Vector_69" d="M449.83 628.27C463.974 628.27 475.44 616.804 475.44 602.66C475.44 588.516 463.974 577.05 449.83 577.05C435.686 577.05 424.22 588.516 424.22 602.66C424.22 616.804 435.686 628.27 449.83 628.27Z" fill="#535461"/>
<path id="Vector_70" d="M442.992 600.736L442.984 600.742C439.977 602.991 439.362 607.253 441.611 610.26L461.937 637.441C464.186 640.448 468.448 641.063 471.455 638.814L471.463 638.808C474.471 636.559 475.085 632.297 472.836 629.29L452.51 602.109C450.261 599.102 446 598.487 442.992 600.736Z" fill="#6C63FF"/>
<path id="Vector_71" d="M565.48 246.99L563.1 277.1C562.826 280.914 562.876 284.744 563.25 288.55C563.56 291.92 563.25 297.82 559.95 306.82C555.713 318.317 553.523 330.467 553.48 342.72V376.99L530.48 372.99C530.48 372.99 531.48 324.99 527.48 316.99C523.48 308.99 530.48 237.99 530.48 237.99L565.48 246.99Z" fill="#DB8B8B"/>
<path id="Vector_72" opacity="0.05" d="M564.3 261.91L563.1 277.1C562.83 280.911 562.883 284.738 563.26 288.54C563.57 291.91 563.26 297.81 559.96 306.82C555.723 318.317 553.533 330.467 553.49 342.72V376.99L530.49 372.99C530.49 372.99 531.49 324.99 527.49 316.99C524.66 311.32 527.34 274.05 529.15 252.78C529.9 244.03 530.49 237.99 530.49 237.99L565.49 246.99L564.3 261.91Z" fill="black"/>
<path id="Vector_73" d="M451.5 476.99L442.85 526.19C441.759 532.759 440.086 539.218 437.85 545.49C432.78 559.35 436.02 578.78 438.48 589.38C439.57 594.06 440.48 597.02 440.48 597.02L414.48 611.02L406.48 605.02V601.02L405.48 512.02C399.48 498.02 401.48 477.02 405.48 469.02C406.617 466.392 407.417 463.63 407.86 460.8C409.86 450.08 410.48 435.02 410.48 435.02C410.48 435.02 426.48 408.02 445.48 426.02C452.48 432.65 455.14 441.32 455.7 449.62C456.68 463.83 451.5 476.99 451.5 476.99Z" fill="#DB8B8B"/>
<path id="Vector_74" opacity="0.1" d="M455.7 449.59C441.83 457.83 417.7 460.16 407.86 460.77C409.86 450.05 410.48 434.99 410.48 434.99C410.48 434.99 426.48 407.99 445.48 425.99C452.48 432.62 455.14 441.29 455.7 449.59Z" fill="black"/>
<path id="Vector_75" d="M489.48 424.99C478.846 430.653 468.797 437.352 459.48 444.99C443.48 457.99 403.48 458.99 403.48 458.99V443.99C404.48 425.99 387.48 405.99 364.48 349.99C349.79 314.23 353.86 293.99 358.72 283.99C361.48 278.34 364.48 275.99 364.48 275.99L489.48 299.99L493.95 313.39L503.48 341.99C503.48 341.99 468.48 343.99 462.48 346.99C456.48 349.99 460.48 376.99 460.48 376.99C454.48 404.99 489.48 424.99 489.48 424.99Z" fill="#ABB1D1"/>
<path id="Vector_76" opacity="0.1" d="M565.48 246.99L564.3 261.91C546.9 266.91 534.48 250.99 534.48 250.99C532.665 251.477 530.882 252.074 529.14 252.78C529.89 244.03 530.48 237.99 530.48 237.99L565.48 246.99Z" fill="black"/>
<path id="Vector_77" opacity="0.1" d="M493.95 313.39C493.48 318.06 493.48 320.99 493.48 320.99C493.48 320.99 470.48 339.99 431.48 310.99C392.48 281.99 357.48 289.99 357.48 289.99C357.48 289.99 357.89 287.67 358.72 283.99C361.48 278.34 364.48 275.99 364.48 275.99L489.48 299.99L493.95 313.39Z" fill="black"/>
<path id="Vector_78" d="M578.96 207.94C576.35 228.29 575.48 253.94 575.48 253.94C552.48 271.94 534.48 248.94 534.48 248.94C512.76 254.77 502.55 273.78 497.74 290.37C495.164 299.344 493.732 308.607 493.48 317.94C493.48 317.94 487.4 322.94 476.2 323.94C465.61 324.83 450.43 322.07 431.48 307.94C392.48 278.94 357.48 286.94 357.48 286.94C357.48 286.94 364.48 246.94 380.48 234.94C396.48 222.94 408.48 207.94 428.48 161.94C448.48 115.94 489.48 126.94 489.48 126.94C489.48 126.94 491.48 117.94 528.48 126.94C537.492 129.302 545.834 133.721 552.85 139.85C572.64 156.49 582.24 182.3 578.96 207.94Z" fill="white"/>
<path id="Vector_79" d="M541.85 149.49C541.8 150.82 541.69 152.3 541.51 153.95C539.51 171.95 537.51 169.95 515.51 173.95C501.83 176.44 494.72 165.01 491.3 156.01C490.062 152.75 489.128 149.382 488.51 145.95L536.51 137.95C536.51 137.95 542.26 136.34 541.85 149.49Z" fill="#DB8B8B"/>
<path id="Vector_80" opacity="0.05" d="M497.74 290.42C495.164 299.394 493.732 308.657 493.48 317.99C493.48 317.99 487.4 322.99 476.2 323.99C475.884 323.353 475.643 322.682 475.48 321.99C473.48 312.99 458.48 296.99 458.48 296.99C448.48 287.99 446.48 271.99 446.48 271.99L429.98 223.49L424.48 218.99C424.48 218.99 447.48 200.99 467.48 215.99C487.48 230.99 481.48 262.99 481.48 262.99L485.48 273.99C489.63 277.49 493.85 283.66 497.74 290.42Z" fill="black"/>
<path id="Vector_81" d="M427.48 217.99L449.48 270.99C449.48 270.99 451.48 286.99 461.48 295.99C461.48 295.99 476.48 311.99 478.48 320.99C480.48 329.99 508.48 353.99 508.48 353.99C508.48 353.99 534.48 377.99 536.48 386.99C536.48 386.99 560.48 393.99 557.48 407.99C557.48 407.99 575.48 389.99 557.48 372.99C539.48 355.99 515.48 320.99 515.48 320.99C515.48 320.99 501.48 283.99 488.48 272.99L484.48 261.99C484.48 261.99 490.48 229.99 470.48 214.99C450.48 199.99 427.48 217.99 427.48 217.99Z" fill="#DB8B8B"/>
<path id="Vector_82" opacity="0.1" d="M440.48 596.99L414.48 610.99L406.48 604.99V600.99C415.464 600.352 424.193 597.718 432.03 593.28C434.43 591.92 436.69 590.58 438.5 589.4C439.55 594.03 440.48 596.99 440.48 596.99Z" fill="black"/>
<path id="Vector_83" opacity="0.1" d="M470.48 175.99L484.48 230.99C484.48 230.99 441.48 237.99 432.48 230.99C423.48 223.99 406.48 221.99 406.48 221.99C406.48 221.99 424.48 169.99 434.48 163.99C444.48 157.99 470.48 175.99 470.48 175.99Z" fill="black"/>
<path id="Vector_84" d="M470.48 173.99L484.48 228.99C484.48 228.99 441.48 235.99 432.48 228.99C423.48 221.99 406.48 219.99 406.48 219.99C406.48 219.99 424.48 167.99 434.48 161.99C444.48 155.99 470.48 173.99 470.48 173.99Z" fill="white"/>
<path id="Vector_85" opacity="0.1" d="M541.85 148.49C539.049 152.356 535.487 155.609 531.383 158.047C527.278 160.485 522.718 162.058 517.983 162.669C513.248 163.28 508.439 162.915 503.85 161.598C499.261 160.281 494.99 158.039 491.3 155.01C490.062 151.75 489.128 148.382 488.51 144.95L536.51 136.95C536.51 136.95 542.26 135.34 541.85 148.49Z" fill="black"/>
<path id="Vector_86" d="M548.48 126.99C548.48 136.273 544.793 145.175 538.229 151.739C531.665 158.303 522.763 161.99 513.48 161.99C504.197 161.99 495.295 158.303 488.731 151.739C482.168 145.175 478.48 136.273 478.48 126.99C478.48 126.41 478.48 125.83 478.48 125.25C478.711 115.967 482.62 107.157 489.346 100.756C496.073 94.3555 505.067 90.8893 514.35 91.12C523.633 91.3508 532.443 95.2595 538.844 101.986C545.245 108.713 548.711 117.707 548.48 126.99V126.99Z" fill="#DB8B8B"/>
<path id="Vector_87" opacity="0.1" d="M548.48 126.99C548.483 130.216 548.039 133.426 547.16 136.53C544.455 137.12 541.633 136.861 539.08 135.79C535.34 134.32 532.13 131.79 528.54 129.97C518.43 124.85 506.4 125.86 495.2 127.55C489.64 128.39 483.33 129.17 478.96 125.63C478.81 125.511 478.666 125.385 478.53 125.25C478.761 115.967 482.67 107.157 489.396 100.756C496.123 94.3555 505.117 90.8893 514.4 91.12C523.683 91.3508 532.493 95.2595 538.894 101.986C545.295 108.713 548.761 117.707 548.53 126.99H548.48Z" fill="black"/>
<path id="Vector_88" opacity="0.05" d="M384.98 234.49C384.98 234.49 410.98 241.49 418.98 259.49C426.98 277.49 448.62 280.78 448.62 280.78" fill="black"/>
<path id="Vector_89" d="M482.98 630.49H422.98V649.49H482.98V630.49Z" fill="#6C63FF"/>
<path id="Vector_90" d="M482.98 630.49H422.98V649.49H482.98V630.49Z" fill="#3E39A0"/>
<path id="Vector_91" d="M431.99 595.23C437.36 592.23 442.07 589.23 442.48 587.99C442.48 587.99 456.03 602.29 468.1 606.73C472.159 608.229 476.044 610.16 479.69 612.49C484.47 615.49 491.29 619.02 497.48 619.02C497.48 619.02 511.48 631.02 484.48 633.02C457.48 635.02 394.48 628.02 394.48 628.02L398.48 603.02C410.167 603.705 421.804 601 431.99 595.23Z" fill="#ABB1D1"/>
<g id="Group 1">
<path id="Vector_92" d="M252.94 606.66L378.59 475.4L382.6 505.81L259.34 618.66L252.94 606.66Z" fill="#201E4A"/>
</g>
</g>
<g id="right wheel">
<path id="Vector_93" d="M681.42 717.39L675.16 619.49L675.03 619.28L668.71 621.48L639.62 706.29L593.37 673.49L667.06 620.08L667.13 619.87L667.55 619.72L672.3 616.27L595.06 572.96L576.13 593.76L579.13 613.26L667.93 614.84V616.84L577.45 615.22L574.05 593.11L599.94 564.66L638.66 519.49L639.35 521.36L647.55 512.36L678.09 517.83V516.62L680.09 516.68V518.19L725.45 526.31L683.12 610.96L676.95 615.43V615.93V616.49L774.76 582.41L763.15 673.62L680.15 620.75L677.23 619.11L726.17 698L681.42 717.39ZM677.42 623.05L683.27 714.43L723.32 697.05L677.42 623.05ZM596.85 673.49L638.64 703.12L665.98 623.38L596.85 673.49ZM679.17 617.83L681.26 619L761.61 670.2L772.41 585.33L679.17 617.83ZM672.07 610.63L674.58 614.68L675.02 614.36L678.02 519.83L648.28 514.49L640.12 523.49L672.07 610.63ZM596.68 571.58L671.52 613.58L670.22 611.45L638.64 525.18L601.44 566.06L596.68 571.58ZM680.05 520.19L677.05 612.88L681.57 609.6L722.48 527.78L680.05 520.19Z" fill="#535461"/>
<path id="Vector_94" d="M676.33 498.61C665.717 498.598 655.15 500.024 644.92 502.85C639.644 504.305 634.477 506.133 629.46 508.32C602.73 519.907 581.247 540.997 569.167 567.508C557.087 594.019 555.269 624.069 564.065 651.843C572.86 679.618 591.644 703.143 616.782 717.869C641.921 732.594 671.627 737.473 700.155 731.562C728.682 725.65 754.004 709.369 771.221 685.867C788.438 662.365 796.327 633.312 793.362 604.33C790.396 575.348 776.787 548.495 755.168 528.966C733.548 509.438 705.454 498.622 676.32 498.61H676.33ZM675.93 704.7C655.649 704.692 635.981 697.746 620.192 685.017C604.404 672.288 593.445 654.541 589.135 634.723C584.825 614.905 587.424 594.209 596.501 576.073C605.577 557.936 620.584 543.45 639.03 535.02C643.722 532.872 648.594 531.142 653.59 529.85C665.802 526.68 678.549 526.147 690.984 528.287C703.418 530.427 715.253 535.191 725.703 542.261C736.153 549.332 744.977 558.547 751.588 569.293C758.199 580.039 762.446 592.069 764.046 604.585C765.646 617.1 764.562 629.812 760.866 641.875C757.17 653.939 750.948 665.077 742.613 674.548C734.277 684.02 724.02 691.608 712.524 696.806C701.028 702.005 688.557 704.696 675.94 704.7H675.93Z" fill="#535461"/>
<path id="Vector_95" d="M675.93 628.67C683.005 628.67 688.74 622.935 688.74 615.86C688.74 608.785 683.005 603.05 675.93 603.05C668.855 603.05 663.12 608.785 663.12 615.86C663.12 622.935 668.855 628.67 675.93 628.67Z" fill="#535461"/>
</g>
<g id="left wheel">
<path id="Vector_96" d="M255.23 716.99L248.96 619.05L248.83 618.84L242.51 621.04L213.43 705.89L167.18 673.1L240.85 619.69L240.92 619.48L241.34 619.33L246.09 615.88L168.85 572.57L149.93 593.37L152.93 612.87L241.75 614.49V616.49L151.27 614.87L147.85 592.73L173.75 564.27L212.5 519.07L213.19 520.94L221.39 511.94L251.85 517.4V516.19L253.85 516.25V517.76L299.21 525.88L256.92 610.49L250.75 614.96V615.46V616.02L348.55 581.94L336.94 673.15L253.94 620.28L251.02 618.64L299.96 697.52L255.23 716.99ZM251.23 622.65L257.08 714.03L297.13 696.65L251.23 622.65ZM170.65 673.08L212.44 702.71L239.78 622.97L170.65 673.08ZM252.97 617.42L255.06 618.59L335.41 669.79L346.21 584.92L252.97 617.42ZM245.87 610.22L248.38 614.27L248.82 613.95L251.82 519.42L222.08 514.1L213.92 523.1L245.87 610.22ZM170.45 571.16L245.29 613.16L243.99 611.03L212.41 524.76L175.22 565.63L170.45 571.16ZM253.85 519.77L250.85 612.49L255.37 609.21L296.28 527.39L253.85 519.77Z" fill="#535461"/>
<path id="Vector_97" d="M364.92 589.95C360.91 572.131 352.79 555.495 341.21 541.37C336.911 536.121 332.171 531.25 327.04 526.81C307.314 509.779 282.491 499.779 256.467 498.381C230.443 496.983 204.692 504.265 183.254 519.085C161.816 533.904 145.906 555.422 138.02 580.262C130.134 605.102 130.719 631.857 139.683 656.328C148.647 680.799 165.482 701.601 187.547 715.47C209.612 729.339 235.657 735.488 261.595 732.954C287.533 730.42 311.895 719.345 330.858 701.468C349.822 683.591 362.312 659.923 366.37 634.18C367.314 628.119 367.789 621.994 367.79 615.86C367.797 607.144 366.834 598.454 364.92 589.95ZM249.73 704.3C231.498 704.281 213.714 698.647 198.797 688.164C183.879 677.682 172.552 662.859 166.356 645.712C160.16 628.565 159.395 609.926 164.165 592.329C168.935 574.732 179.009 559.031 193.018 547.361C207.026 535.692 224.288 528.619 242.457 527.106C260.627 525.593 278.821 529.712 294.567 538.904C310.312 548.096 322.845 561.914 330.46 578.48C338.076 595.045 340.405 613.554 337.13 631.49C333.38 651.933 322.58 670.414 306.611 683.718C290.642 697.021 270.514 704.304 249.73 704.3V704.3Z" fill="#535461"/>
<path id="Vector_98" d="M249.73 628.27C256.805 628.27 262.54 622.535 262.54 615.46C262.54 608.385 256.805 602.65 249.73 602.65C242.655 602.65 236.92 608.385 236.92 615.46C236.92 622.535 242.655 628.27 249.73 628.27Z" fill="#535461"/>
</g>
<g id="hat">
<path id="Vector_99" d="M453.16 105.34C455.29 112.02 465.52 112.23 470.77 117.15C473.5 119.71 474.77 123.49 477.77 125.77C481.94 128.95 487.96 128.25 493.27 127.49C503.96 125.97 515.44 125.06 525.08 129.67C528.5 131.3 531.57 133.58 535.14 134.91C538.71 136.24 543.14 136.4 546.04 134.04C548.36 132.15 549.21 129.04 551.31 126.96C552.94 125.32 555.21 124.4 557.07 122.96C561.15 119.88 562.91 114.86 564.07 110.06C566.47 100.18 567.16 89.53 563.07 80.16C558.98 70.79 549.14 63.16 538.4 63.65C535.11 63.8 531.9 64.65 528.62 65.01C520.07 65.88 511.62 63.01 503.04 62.52C500.551 62.2172 498.027 62.5616 495.71 63.52C493.963 64.4908 492.457 65.8406 491.3 67.47C487.372 72.6154 484.682 78.5969 483.44 84.95C482.44 89.74 482.39 94.08 476.52 94.82C469.85 95.7 448.65 91.21 453.16 105.34Z" fill="#472727"/>
</g>
</g>
<defs>
<linearGradient id="paint0_linear" x1="801.5" y1="52" x2="60.5" y2="582.5" gradientUnits="userSpaceOnUse">
<stop stop-color="#4F44FF"/>
<stop offset="1" stop-color="#14FF00" stop-opacity="0"/>
</linearGradient>
<linearGradient id="paint1_linear" x1="461.74" y1="737.642" x2="461.74" y2="55.0824" gradientUnits="userSpaceOnUse">
<stop stop-color="#808080" stop-opacity="0.25"/>
<stop offset="0.54" stop-color="#808080" stop-opacity="0.12"/>
<stop offset="1" stop-color="#808080" stop-opacity="0.1"/>
</linearGradient>
<clipPath id="clip0">
<rect width="1057.7" height="784.98" fill="white"/>
</clipPath>
</defs>
</svg>
